
        <svg xmlns="http://www.w3.org/2000/svg" xmlns:xlink="http://www.w3.org/1999/xlink" version="1.1" width="3187.5" 
        height="2496.523599720466" viewBox="0 0 3187.5 2496.523599720466">
			
			<g transform="scale(9.375) translate(10, 10)">
				<defs id="SvgjsDefs1444"></defs><g id="SvgjsG1445" featureKey="symbolFeature-0" transform="matrix(2.8075902527317464,0,0,2.8075902527317464,-90.2479550389714,-16.912924153700743)" fill="#f2fcfc"><path xmlns="http://www.w3.org/2000/svg" d="M52.094,93.749c0.001,0,11.108-7.41,0.883-22.909c-4.773-7.235-12.596-14.971-11.701-22.63  c-1.015,0.883-1.937,1.859-2.38,2.453c-1.618,2.169-2.791,4.529-3.392,6.964c-0.697,2.823-0.515,5.795,1.102,8.686  c1.501,2.683,4.107,5.103,6.558,7.537c5.868,5.826,11.036,12.018,9.461,18.607C52.541,92.811,52.5,93.478,52.094,93.749z"></path><path xmlns="http://www.w3.org/2000/svg" d="M59.398,79.14c0.001-0.001,17.835-11.897,1.417-36.782C53.152,30.742,40.592,18.321,42.03,6.024  c-1.365,1.194-3.11,2.985-3.821,3.939c-2.598,3.482-4.481,7.271-5.446,11.181c-1.12,4.533-0.827,9.304,1.77,13.946  c2.41,4.308,6.594,8.193,10.53,12.102c9.421,9.355,17.719,19.295,15.19,29.876C60.116,77.635,60.049,78.706,59.398,79.14z"></path></g><g id="SvgjsG1446" featureKey="nameFeature-0" transform="matrix(2.7056272141444326,0,0,2.7056272141444326,119.24242252223279,53.67119410736719)" fill="#f2fcfc"><path d="M28 30.84 c0 4.2 -2.48 6.48 -3.72 7.4 c-3.64 2.68 -8.4 2.6 -9.6 2.6 c-4.12 0 -8.04 -0.68 -11.4 -3.2 c-1.28 -0.96 -2.04 -1.8 -3 -3.04 l6.84 -4.36 c0.6 0.96 0.96 1.4 1.36 1.72 c1.6 1.4 4.56 2 6.52 2 c2.52 0 4.28 -0.76 4.28 -2.16 c0 -0.32 -0.16 -0.56 -0.2 -0.68 c-0.2 -0.4 -0.52 -0.76 -1.36 -1.04 c-1 -0.36 -2.8 -0.6 -5.32 -1.12 c-3.88 -0.76 -5.96 -1.72 -7.32 -2.92 c-0.88 -0.76 -2.48 -2.64 -2.44 -5.72 c0 -0.76 0.04 -2.48 1.04 -4.28 c2.88 -5.28 10.36 -5.2 11.44 -5.2 c1.44 0 6.52 0.08 10.56 3.04 c0.88 0.64 1.4 1.2 2.16 1.96 l-5.64 4.68 c-0.36 -0.48 -0.56 -0.72 -0.8 -0.92 c-1.64 -1.52 -4.48 -1.96 -6.6 -1.96 c-0.2 0 -1.28 0 -2.12 0.36 c-0.16 0.08 -1.12 0.52 -1.12 1.48 c0 0.52 0.32 1 0.72 1.28 c0.72 0.44 2.4 0.76 3.16 0.88 c1 0.16 3.64 0.52 6.44 1.44 c1.76 0.56 6.12 2.12 6.12 7.76 z M44 32.16 c0 0.16 0 1.68 -0.2 2.64 c-0.52 2.88 -2.2 3.88 -3.28 4.36 c-1.32 0.56 -2.6 0.84 -5.4 0.84 l-5.96 0 l0 -6.96 c0.6 0.12 1.08 0.24 2.28 0.24 c2 0 2.92 -0.48 3.32 -1.44 c0.2 -0.44 0.32 -0.88 0.32 -1.8 l0 -18.28 l8.92 0 l0 20.4 z M74.2 31.92 c0 0.92 -0.12 3.88 -2.2 5.88 c-0.76 0.76 -1.6 1.12 -1.96 1.28 c-1.76 0.8 -3.32 0.92 -5.16 0.92 l-17.28 0 l0 -28.24 l16.72 0 c0.8 0 1.6 0.04 2.4 0.16 c1.68 0.24 3.68 0.96 4.88 2.2 c0.24 0.28 0.72 0.84 1.12 1.68 c0.48 0.96 0.72 2.04 0.72 3.12 c0 0.92 -0.28 3.6 -2.56 5.4 c-0.44 0.32 -0.88 0.6 -1.88 1.04 l1.2 0.36 c0.88 0.28 1.56 0.76 2.24 1.44 c1.72 1.8 1.76 3.84 1.76 4.76 z M64.36 20.12 c0 -0.72 -0.2 -1.16 -0.36 -1.4 c-0.68 -1.08 -2.04 -1 -2.36 -1 l-5.12 0 l0 4.76 l4.92 0 c0.96 0 2.04 -0.08 2.6 -1.04 c0.32 -0.48 0.32 -1.08 0.32 -1.32 z M65.12 31.2 c0 -0.32 -0.04 -0.92 -0.4 -1.52 c-0.8 -1.32 -2.48 -1.28 -2.84 -1.28 l-5.4 0 l0 5.52 l5.6 0 c1 0 1.92 -0.2 2.56 -1.12 c0.44 -0.64 0.48 -1.28 0.48 -1.6 z"></path></g>
			</g>
		</svg>
	